<svg xmlns="http://www.w3.org/2000/svg" xmlns:xlink="http://www.w3.org/1999/xlink" version="1.1" x="0px" y="0px" viewBox="0 0 100 100" enable-background="new 0 0 100 100" xml:space="preserve"><g><path fill-rule="evenodd" clip-rule="evenodd" d="M59.941,90.803c-6.587,0-13.005,0-19.53,0c0-26.899,0-53.692,0-80.66   c6.441,0,12.912,0,19.53,0C59.941,36.95,59.941,63.795,59.941,90.803z"></path><path fill-rule="evenodd" clip-rule="evenodd" d="M14.014,10.031c6.745,0,13.257,0,19.942,0c0,20.129,0,40.236,0,60.474   c-5.886-0.049-11.652-0.364-16.62-4.137c-1.888-1.434-2.943-3.246-2.966-5.58c-0.163-16.492-0.295-32.985-0.433-49.478   C13.934,10.956,13.979,10.601,14.014,10.031z"></path><path fill-rule="evenodd" clip-rule="evenodd" d="M65.918,70.622c0-20.292,0-40.347,0-60.528c6.647,0,13.212,0,20.096,0   c0,0.757,0.007,1.529-0.001,2.301c-0.138,15.979-0.286,31.959-0.408,47.939c-0.021,2.7-1.072,4.776-3.342,6.272   c-3.433,2.263-7.116,3.664-11.289,3.671C69.368,70.279,67.764,70.489,65.918,70.622z"></path></g></svg>